<?xml version="1.0" standalone="no"?>
<!DOCTYPE svg PUBLIC "-//W3C//DTD SVG 20010904//EN"
 "http://www.w3.org/TR/2001/REC-SVG-20010904/DTD/svg10.dtd">
<svg version="1.0" xmlns="http://www.w3.org/2000/svg"
 width="666.000000pt" height="532.000000pt" viewBox="0 0 666.000000 532.000000"
 preserveAspectRatio="xMidYMid meet">

<g transform="translate(0.000000,532.000000) scale(0.100000,-0.100000)"
fill="#000000" stroke="none">
<path d="M0 2660 l0 -2660 3330 0 3330 0 0 2660 0 2660 -3330 0 -3330 0 0
-2660z m2396 953 c-1 -156 9 -293 22 -293 4 0 24 35 44 78 21 42 52 101 71
130 l33 53 0 -168 c0 -158 12 -253 32 -253 5 0 14 27 20 59 7 33 22 83 34 112
l22 53 13 -105 c25 -191 111 -519 199 -756 20 -52 34 -96 32 -99 -7 -7 -100
156 -143 251 -22 49 -54 134 -70 187 -17 54 -34 98 -39 98 -9 0 -2 -260 8
-315 10 -51 -81 144 -114 245 -17 52 -41 143 -52 203 -12 59 -25 107 -29 107
-9 0 -16 -52 -25 -184 -7 -117 -13 -112 -49 36 -50 206 -66 403 -46 545 11 74
31 173 36 173 1 0 2 -71 1 -157z m1898 76 c23 -122 28 -237 17 -364 -15 -153
-87 -474 -91 -400 0 11 -5 76 -10 143 -12 170 -21 177 -45 36 -9 -49 -34 -143
-56 -209 -41 -124 -123 -304 -114 -250 11 60 18 315 9 315 -6 0 -23 -44 -39
-97 -28 -94 -163 -380 -204 -433 -14 -17 -3 26 35 135 102 298 163 531 187
716 l13 104 23 -60 c12 -33 27 -82 33 -110 6 -27 15 -54 19 -59 16 -19 33 115
33 267 l-1 158 34 -53 c18 -29 50 -88 71 -130 20 -43 40 -78 44 -78 13 0 23
119 22 282 0 92 1 166 3 164 2 -2 10 -36 17 -77z m-1082 -31 c9 -7 19 -24 23
-38 5 -22 4 -23 -7 -9 -10 12 -31 16 -97 14 -75 -1 -80 0 -50 11 19 6 33 17
32 23 -4 15 79 14 99 -1z m76 0 c7 -7 12 -39 12 -72 0 -56 -2 -61 -40 -98 -23
-21 -47 -38 -55 -38 -8 0 -15 -4 -15 -8 0 -14 -80 -34 -160 -39 -87 -6 -102 2
-119 64 -14 50 -4 104 25 139 l25 29 -16 -39 c-22 -56 -19 -112 6 -137 20 -20
29 -21 101 -15 90 7 175 36 206 69 12 13 24 38 27 57 3 19 3 29 -1 23 -12 -27
-24 -11 -24 32 0 46 7 54 28 33z m122 -34 c0 -27 -4 -43 -10 -39 -10 6 -14 -7
-10 -35 6 -47 102 -95 214 -106 89 -9 114 -1 132 42 14 33 13 40 -6 92 -20 56
-20 57 0 34 37 -44 43 -118 15 -184 -10 -25 -69 -33 -150 -21 -85 12 -135 35
-187 83 -36 35 -38 40 -38 102 0 67 4 78 27 78 9 0 13 -14 13 -46z m242 9 c42
-20 62 -63 51 -115 -7 -37 -38 -55 -58 -34 -14 13 -13 16 7 27 14 8 18 14 10
17 -6 2 -12 18 -12 35 0 20 -9 41 -27 59 -31 32 -25 35 29 11z m-27 -301 c17
-6 26 -11 20 -11 -5 -1 14 -15 43 -32 64 -36 64 -47 0 -19 -129 57 -673 49
-732 -11 -6 -5 -14 -9 -19 -9 -18 0 14 27 53 45 22 10 37 21 35 26 -3 4 21 10
52 14 32 4 63 8 68 11 20 8 451 -5 480 -14z m-682 -42 c-46 -28 -66 -73 -69
-155 -1 -38 -8 -83 -14 -100 l-13 -30 -7 25 c-5 14 -8 57 -9 96 -1 84 20 125
84 161 49 28 72 30 28 3z m823 -12 c65 -44 80 -84 69 -193 -6 -72 -8 -77 -20
-55 -7 14 -15 58 -19 99 -8 89 -27 133 -69 160 -18 12 -27 21 -21 21 7 0 34
-15 60 -32z m-190 -17 c18 -12 18 -12 -2 -8 -34 7 -125 -11 -144 -28 -20 -18
-46 -20 -54 -2 -3 6 -5 -6 -3 -28 l2 -40 -41 0 -41 0 8 33 c4 17 3 35 -2 38
-5 3 -9 0 -9 -5 0 -17 -31 -13 -52 6 -12 11 -44 19 -91 23 -73 6 -74 16 -2 24
85 9 411 -1 431 -13z m-589 -41 c-34 -27 -41 -66 -22 -119 14 -40 14 -42 -2
-30 -18 16 -43 70 -43 94 0 22 54 75 76 75 13 0 11 -4 -9 -20z m720 0 c18 -11
35 -30 39 -44 7 -29 -18 -86 -49 -113 -12 -10 -17 -11 -11 -3 6 8 17 32 24 53
14 45 1 88 -34 112 -31 22 -6 18 31 -5z m-107 -184 c55 -1 57 -16 2 -16 -60 0
-112 19 -150 56 l-37 35 69 -37 c50 -27 81 -37 116 -38z m-387 34 c-36 -33
-89 -50 -148 -49 -39 1 -39 1 15 13 30 6 75 23 100 38 60 35 72 34 33 -2z
m-323 -176 c0 -6 9 -32 21 -58 11 -26 19 -57 17 -69 -3 -19 -6 -17 -25 18 -11
22 -26 60 -33 85 -23 92 -23 87 -1 60 11 -14 21 -30 21 -36z m911 -16 c-10
-36 -27 -81 -39 -99 -21 -33 -22 -33 -22 -9 0 14 9 45 20 69 11 24 20 47 20
52 0 12 32 61 36 56 2 -2 -4 -33 -15 -69z m-1713 -880 c-3 -39 -6 -43 -30 -46
-20 -2 -28 1 -28 12 0 13 -12 16 -53 16 -73 0 -98 -30 -60 -72 11 -12 30 -18
60 -18 32 0 54 -7 79 -26 30 -23 34 -32 34 -73 0 -40 -5 -52 -34 -80 -34 -33
-34 -33 -122 -29 l-89 4 -3 42 c-3 41 -2 42 26 42 17 0 32 -6 36 -15 8 -21 89
-20 110 1 39 38 12 74 -56 74 -39 0 -54 6 -83 31 -31 27 -35 37 -35 78 0 40 4
50 32 73 31 26 40 27 126 28 l93 0 -3 -42z m388 15 l34 -28 0 -122 c0 -103 2
-123 15 -123 8 0 15 -8 15 -17 0 -36 -15 -44 -71 -41 -51 3 -54 4 -51 28 2 13
10 29 17 35 13 11 15 78 3 83 -5 1 -33 2 -63 2 l-55 0 0 -45 c0 -33 4 -45 15
-45 8 0 15 -8 15 -17 0 -36 -15 -44 -71 -41 -51 3 -54 4 -51 28 2 14 8 27 13
28 5 2 9 57 9 122 0 91 -3 119 -14 123 -9 3 -12 15 -9 31 5 26 5 26 110 26 99
0 106 -1 139 -27z m452 -15 c-3 -39 -6 -43 -30 -46 -20 -2 -28 1 -28 12 0 13
-12 16 -55 16 l-55 0 0 -45 0 -45 55 0 c57 0 59 -1 49 -37 -6 -20 -13 -23 -55
-23 l-49 0 0 -45 c0 -34 4 -45 16 -45 11 0 14 -8 12 -27 -3 -27 -6 -28 -60
-31 l-58 -3 0 29 c0 17 6 32 15 36 12 4 15 27 15 121 0 96 -3 115 -15 115 -10
0 -15 10 -15 30 l0 30 131 0 130 0 -3 -42z m402 3 c0 -26 -5 -41 -16 -45 -28
-11 -54 -6 -54 9 0 11 -12 15 -50 15 l-50 0 0 -45 0 -45 51 0 c49 0 50 -1 47
-27 -3 -26 -7 -28 -50 -31 l-48 -3 0 -45 0 -44 50 0 c39 0 50 4 50 16 0 11 8
14 33 12 30 -3 32 -5 32 -43 l0 -40 -132 -3 -133 -3 0 26 c0 14 7 28 15 31 12
5 15 29 15 125 0 99 -3 119 -15 119 -15 0 -21 40 -8 53 3 4 64 7 135 7 l128 0
0 -39z m378 9 c26 -25 32 -37 32 -72 0 -24 -7 -49 -17 -60 -15 -17 -15 -19 0
-36 10 -11 17 -36 17 -60 0 -31 4 -42 15 -42 8 0 15 -8 15 -17 0 -36 -15 -44
-71 -41 -51 3 -54 4 -51 28 2 14 8 27 13 28 13 5 11 66 -3 80 -7 7 -34 12 -60
12 l-48 0 0 -45 c0 -33 4 -45 15 -45 8 0 15 -8 15 -17 0 -36 -15 -44 -71 -41
-51 3 -54 4 -51 28 1 14 7 27 12 28 6 2 10 53 10 119 0 91 -3 118 -15 127 -9
7 -12 19 -9 34 6 21 11 22 113 22 103 -1 107 -1 139 -30z m312 11 c0 -11 -7
-26 -15 -35 -23 -22 -22 -246 1 -246 11 0 14 -8 12 -27 -3 -27 -5 -28 -63 -28
-58 0 -60 1 -57 25 2 14 8 27 13 28 5 2 9 56 9 119 0 91 -3 118 -15 127 -9 7
-12 19 -9 34 6 20 13 22 65 22 52 0 59 -2 59 -19z m377 -7 l33 -25 0 -123 0
-124 -35 -31 c-35 -30 -38 -31 -140 -31 -104 0 -105 0 -105 24 0 13 7 29 15
36 12 10 15 37 15 126 0 95 -3 114 -15 114 -10 0 -15 10 -15 30 l0 30 107 0
c98 0 109 -2 140 -26z m431 -16 c-3 -39 -6 -43 -30 -46 -20 -2 -28 1 -28 12 0
13 -12 16 -55 16 l-55 0 0 -45 0 -45 55 0 c57 0 59 -1 49 -37 -6 -20 -13 -23
-55 -23 l-49 0 0 -45 0 -45 55 0 c42 0 55 3 55 15 0 10 10 15 30 15 29 0 30
-2 30 -44 l0 -43 -130 -2 -130 -2 0 24 c0 14 7 30 15 37 12 10 15 37 15 126 0
95 -3 114 -15 114 -10 0 -15 10 -15 30 l0 30 131 0 130 0 -3 -42z m-3044 -564
c23 -9 20 -51 -4 -64 -11 -6 -20 -17 -20 -25 0 -8 -4 -15 -10 -15 -5 0 -10 22
-10 48 0 61 7 70 44 56z m195 -57 l8 -47 -30 0 c-30 0 -30 0 -23 46 11 82 29
82 45 1z m188 46 c3 -7 -3 -9 -16 -6 -28 7 -26 -9 4 -35 29 -25 31 -35 10 -52
-19 -16 -45 -6 -44 17 0 11 3 13 6 6 5 -14 33 -18 33 -5 0 5 -9 17 -20 27 -20
18 -26 46 -13 59 10 10 36 3 40 -11z m339 9 c11 -6 18 -44 15 -83 -1 -22 -30
-32 -47 -18 -17 14 -18 81 -2 97 14 14 19 14 34 4z m194 -19 c0 9 5 17 10 17
6 0 10 -22 10 -50 0 -54 -5 -60 -26 -32 -12 16 -13 15 -23 -8 -8 -21 -10 -14
-10 40 l-1 65 20 -25 c16 -20 20 -22 20 -7z m707 2 c2 -11 0 -14 -3 -7 -6 13
-34 17 -34 5 0 -4 12 -19 26 -34 23 -24 24 -28 9 -43 -20 -20 -29 -20 -44 -2
-8 10 -9 16 -1 21 5 3 10 1 10 -4 0 -6 7 -11 15 -11 20 0 19 16 -3 32 -28 20
-35 37 -21 54 16 20 43 14 46 -11z m193 15 c0 -5 -7 -10 -15 -10 -21 0 -19
-30 3 -30 16 -1 16 -1 0 -14 -22 -16 -23 -36 -3 -36 8 0 15 -4 15 -10 0 -5
-11 -10 -25 -10 -24 0 -25 3 -25 60 0 57 1 60 25 60 14 0 25 -4 25 -10z m188
-2 c18 -18 15 -33 -3 -18 -11 9 -19 10 -26 3 -14 -14 -7 -65 10 -71 9 -3 11 2
6 17 -5 15 -2 21 9 21 20 0 21 -33 2 -49 -7 -6 -21 -9 -30 -5 -20 8 -23 99 -3
107 19 8 22 8 35 -5z m397 2 c12 -19 16 -100 5 -100 -5 0 -10 9 -10 20 0 11
-7 20 -15 20 -8 0 -15 -9 -15 -20 0 -11 -4 -20 -10 -20 -11 0 -14 93 -3 103
10 11 41 8 48 -3z m354 -4 c17 -20 10 -87 -10 -99 -31 -20 -49 -1 -49 51 0 27
3 52 7 55 11 12 40 8 52 -7z m187 -48 c6 -43 5 -45 -20 -50 -14 -3 -27 -3 -30
-1 -4 4 10 74 20 102 8 24 23 -1 30 -51z m188 56 c12 -4 16 -20 16 -54 0 -40
-4 -50 -20 -55 -31 -10 -40 2 -40 54 0 60 7 69 44 55z m-2584 -48 c0 -25 -4
-48 -10 -51 -6 -4 -10 13 -10 44 0 28 5 51 10 51 6 0 10 -20 10 -44z m729 17
c-5 -14 -9 -35 -9 -49 0 -13 -4 -24 -10 -24 -5 0 -10 11 -10 24 0 14 -4 35 -9
49 -8 21 -7 24 19 24 26 0 27 -3 19 -24z m891 -18 c0 -33 4 -45 15 -45 11 0
15 12 15 45 0 25 5 45 10 45 6 0 10 -20 10 -45 0 -35 -5 -47 -21 -55 -31 -17
-49 4 -49 56 0 24 5 44 10 44 6 0 10 -20 10 -45z m400 -5 c0 -27 -4 -50 -10
-50 -5 0 -10 23 -10 50 0 28 5 50 10 50 6 0 10 -22 10 -50z"/>
<path d="M2320 1935 l0 -46 63 3 c59 3 62 4 65 29 5 40 -21 59 -79 59 l-49 0
0 -45z"/>
<path d="M3550 1935 l0 -45 48 0 c55 0 72 12 72 51 0 31 -15 39 -76 39 l-44 0
0 -45z"/>
<path d="M4240 1860 l0 -120 48 0 c72 0 82 16 82 126 0 57 -4 94 -12 102 -7 7
-36 12 -65 12 l-53 0 0 -120z"/>
<path d="M1760 1400 c0 -13 5 -20 13 -17 6 2 12 10 12 17 0 7 -6 15 -12 18 -8
2 -13 -5 -13 -18z"/>
<path d="M2480 1380 c0 -29 4 -40 13 -37 6 2 12 19 12 37 0 18 -6 35 -12 38
-9 2 -13 -9 -13 -38z"/>
<path d="M4150 1405 c0 -8 7 -15 15 -15 8 0 15 7 15 15 0 8 -7 15 -15 15 -8 0
-15 -7 -15 -15z"/>
<path d="M4500 1380 c0 -29 4 -40 15 -40 11 0 15 11 15 40 0 29 -4 40 -15 40
-11 0 -15 -11 -15 -40z"/>
<path d="M4890 1380 c0 -29 4 -40 13 -37 6 2 12 19 12 37 0 18 -6 35 -12 38
-9 2 -13 -9 -13 -38z"/>
</g>
</svg>
